<svg width="33" height="32" viewBox="0 0 33 32" fill="none" xmlns="http://www.w3.org/2000/svg">
<g id="Group">
<path id="Vector" d="M5.83334 29.3333C5.83334 26.5043 6.95715 23.7912 8.95754 21.7908C10.9579 19.7905 13.671 18.6666 16.5 18.6666C19.329 18.6666 22.0421 19.7905 24.0425 21.7908C26.0429 23.7912 27.1667 26.5043 27.1667 29.3333H24.5C24.5 27.2116 23.6572 25.1768 22.1569 23.6765C20.6566 22.1762 18.6217 21.3333 16.5 21.3333C14.3783 21.3333 12.3434 22.1762 10.8432 23.6765C9.34286 25.1768 8.50001 27.2116 8.50001 29.3333H5.83334ZM16.5 17.3333C12.08 17.3333 8.50001 13.7533 8.50001 9.33331C8.50001 4.91331 12.08 1.33331 16.5 1.33331C20.92 1.33331 24.5 4.91331 24.5 9.33331C24.5 13.7533 20.92 17.3333 16.5 17.3333ZM16.5 14.6666C19.4467 14.6666 21.8333 12.28 21.8333 9.33331C21.8333 6.38665 19.4467 3.99998 16.5 3.99998C13.5533 3.99998 11.1667 6.38665 11.1667 9.33331C11.1667 12.28 13.5533 14.6666 16.5 14.6666Z" fill="#83BD2B"/>
</g>
</svg>
